# xmcd
#
# Track frame offsets:
#	150
#	11030
#	24768
#	39693
#	53788
#	66740
#	78448
#	97280
#	114893
#	126903
#	139963
#	158363
#	171340
#	185983
#	196435
#	208833
#
# Disc length: 2967
#
# Revision: 1
# Processed by: cddbd v1.5.1PL0 Copyright (c) Steve Scherf et al.
# Submitted via: CDex 1.51
# Normalized: r0:TDELIM( - )
#
DISCID=ec0b9510
DTITLE=Various Artist - Country Collection, Disk 1
DYEAR=1900
DGENRE=Country
TTITLE0=Slim Whitman - Rose Marie
TTITLE1=Willie Nelson - Have I Told You Lately That I Love You
TTITLE2=Slim Whitman - Indian Love Call
TTITLE3=Glen Campbell - Gentle On My Mind
TTITLE4=Billie Jo Spears - Today I Started Loving You Again
TTITLE5=Chrystal Gayle - Don't It Make My Brown Eyes Blue
TTITLE6=Kenny Rogers and Dottie West - You've Lost That Lovin Feeling
TTITLE7=Kenny Rogers - Lady
TTITLE8=Wanda Jacksson - Stand By Your Man
TTITLE9=Dr. Hook - When Your In Love With A Beautiful Woman
TTITLE10=Billy Crash Craddock - I Just Had You On My Mind
TTITLE11=Barbara Montgomery - I Wish That I Could Fall In Love Today
TTITLE12=Crystal Gayle - Cry Me A River
TTITLE13=Glen Campbell - Reason To believe
TTITLE14=Billie Jo Spears - What I've Got In Mind
TTITLE15=Dr. Hook - Sexy Eyes
EXTD=
EXTT0=
EXTT1=
EXTT2=
EXTT3=
EXTT4=
EXTT5=
EXTT6=
EXTT7=
EXTT8=
EXTT9=
EXTT10=
EXTT11=
EXTT12=
EXTT13=
EXTT14=
EXTT15=
PLAYORDER=
